HIERARCHY
ROOT Hips
{
	OFFSET -3.958830 18.904000 13.208200
	CHANNELS 6 Xposition Yposition Zposition Zrotation Yrotation Xrotation 
	JOINT LHipJoint
	{
		OFFSET 0.000000 0.000000 0.000000
		CHANNELS 3 Zrotation Yrotation Xrotation
		JOINT LeftUpLeg
		{
			OFFSET 1.800000 -1.400000 0.085000
			CHANNELS 3 Zrotation Yrotation Xrotation
			JOINT LeftLeg
			{
				OFFSET 2.215000 -6.000000 0.000000
				CHANNELS 3 Zrotation Yrotation Xrotation
				JOINT LeftFoot
				{
					OFFSET 2.500000 -6.900000 0.000000
					CHANNELS 3 Zrotation Yrotation Xrotation
					JOINT LeftToeBase
					{
						OFFSET 0.200000 -0.500000 1.950000
						CHANNELS 3 Zrotation Yrotation Xrotation
						End Site
						{
							OFFSET 0.000000 0.000000 0.000000
						}
					}
				}
			}
		}
	}
	JOINT RHipJoint
	{
		OFFSET 0.000000 0.000000 0.000000
		CHANNELS 3 Zrotation Yrotation Xrotation
		JOINT RightUpLeg
		{
			OFFSET -1.800000 -1.400000 0.085000
			CHANNELS 3 Zrotation Yrotation Xrotation
			JOINT RightLeg
			{
				OFFSET -2.215000 -6.000000 0.000000
				CHANNELS 3 Zrotation Yrotation Xrotation
				JOINT RightFoot
				{
					OFFSET -2.500000 -6.900000 0.000000
					CHANNELS 3 Zrotation Yrotation Xrotation
					JOINT RightToeBase
					{
						OFFSET -0.200000 -0.500000 1.950000
						CHANNELS 3 Zrotation Yrotation Xrotation
						End Site
						{
							OFFSET 0.000000 0.000000 0.000000
						}
					}
				}
			}
		}
	}
	JOINT LowerBack
	{
		OFFSET 0.000000 0.000000 0.000000
		CHANNELS 3 Zrotation Yrotation Xrotation
		JOINT Spine
		{
			OFFSET -0.087000 1.940000 -0.288900
			CHANNELS 3 Zrotation Yrotation Xrotation
			JOINT Spine1
			{
				OFFSET 0.000000 1.950000 0.060000
				CHANNELS 3 Zrotation Yrotation Xrotation
				JOINT Neck
				{
					OFFSET 0.000000 0.000000 0.000000
					CHANNELS 3 Zrotation Yrotation Xrotation
					JOINT Neck1
					{
						OFFSET 0.000000 1.600000 0.340000
						CHANNELS 3 Zrotation Yrotation Xrotation
						JOINT Head
						{
							OFFSET 0.000000 1.667000 -0.240000
							CHANNELS 3 Zrotation Yrotation Xrotation
							End Site
							{
								OFFSET 0.000000 0.000000 0.000000
							}
						}
					}
				}
				JOINT LeftShoulder
				{
					OFFSET 0.000000 0.000000 0.000000
					CHANNELS 3 Zrotation Yrotation Xrotation
					JOINT LeftArm
					{
						OFFSET 2.700000 1.550000 -0.730000
						CHANNELS 3 Zrotation Yrotation Xrotation
						JOINT LeftForeArm
						{
							OFFSET 5.450000 0.000000 0.000000
							CHANNELS 3 Zrotation Yrotation Xrotation
							JOINT LeftHand
							{
								OFFSET 3.450000 0.000000 0.000000
								CHANNELS 3 Zrotation Yrotation Xrotation
								JOINT LeftHandIndex1
								{
									OFFSET 0.750000 0.000000 0.000000
									CHANNELS 3 Zrotation Yrotation Xrotation
									End Site
									{
										OFFSET 0.000000 0.000000 0.000000
									}
								}
							}
						}
					}
				}
				JOINT RightShoulder
				{
					OFFSET 0.000000 0.000000 0.000000
					CHANNELS 3 Zrotation Yrotation Xrotation
					JOINT RightArm
					{
						OFFSET -2.700000 1.550000 -0.730000
						CHANNELS 3 Zrotation Yrotation Xrotation
						JOINT RightForeArm
						{
							OFFSET -5.450000 0.000000 0.000000
							CHANNELS 3 Zrotation Yrotation Xrotation
							JOINT RightHand
							{
								OFFSET -3.450000 0.000000 0.000000
								CHANNELS 3 Zrotation Yrotation Xrotation
								JOINT RightHandIndex1
								{
									OFFSET -0.750000 0.000000 0.000000
									CHANNELS 3 Zrotation Yrotation Xrotation
									End Site
									{
										OFFSET 0.000000 0.000000 0.000000
									}
								}
							}
						}
					}
				}
			}
		}
	}
}
MOTION
Frames: 12
Frame Time: 0.016667
-1.263810 18.151080 -2.560820 -8.963148 -15.161451 -8.588581 -18.075579 19.453833 4.785478 25.908076 -9.639732 -21.992694 -4.756294 5.292979 39.710031 7.967663 10.793904 5.104041 23.331160 1.590260 28.149940 15.174696 -4.833832 3.177364 4.222565 12.652018 4.415666 10.707753 -4.265833 11.460486 -10.886753 -2.503200 3.245149 -0.965180 -9.165600 15.708720 4.349957 -23.281770 -12.046227 28.008039 -8.043374 25.490412 -26.759708 17.571190 8.331143 16.786181 15.289365 -66.676818 -11.381381 24.207505 143.431477 -29.475820 26.987950 -52.367180 -69.183490 -46.020878 26.714356 -36.469469 19.244077 -33.080715 144.985168 2.048699 -65.895692 4.999185 16.876097 8.557050 -2.894140 9.772380 7.132010 39.122598 65.452265 26.082498 67.952321 -14.437418 -14.409146 -36.810134 1.126639 -2.684176 1.848548 -16.978291 10.740040 -13.124310 -18.980450 -3.009410 
-1.229600 18.139540 -2.596020 -9.862927 -15.675202 -10.412869 -18.128766 19.284703 4.706192 27.925050 -9.245465 -20.541245 -6.165003 6.448855 40.077489 8.009480 11.316039 4.999357 23.313270 1.610410 28.063340 15.267861 -4.540553 3.070692 5.676949 11.842173 6.698566 9.979830 -4.277443 11.255328 -10.940995 -2.695056 3.244542 -0.934430 -9.135640 15.672070 4.287931 -23.437598 -11.657764 27.549771 -11.307816 28.653539 -28.695232 17.629118 11.220514 17.037510 16.949729 -68.206176 -11.715728 25.740326 142.108166 -30.590820 25.084500 -53.956040 -65.435702 -48.011207 26.448213 -34.140677 15.117285 -34.666318 144.544361 1.155565 -66.587696 4.892991 16.846535 8.600310 -2.911330 9.744480 7.158430 32.934524 68.418892 26.085283 65.640806 -7.560796 -13.696334 -36.335779 0.475442 -2.484779 1.820348 -17.009556 10.702980 -13.058660 -18.936550 -3.020020 
-1.195680 18.128870 -2.622050 -9.923556 -15.957912 -11.997005 -18.167921 19.189619 4.582749 28.747250 -9.078005 -19.455331 -6.333635 6.971269 40.870482 8.114259 11.632779 4.987791 23.259990 1.574650 27.979310 15.314090 -4.417232 2.946251 5.742772 11.355525 8.400110 10.244727 -4.414648 11.000035 -10.972440 -2.907538 3.257902 -0.959860 -9.090410 15.651690 4.282039 -23.449878 -11.479310 25.206773 -13.163059 31.316523 -29.157359 17.000594 11.783069 17.759186 18.465348 -68.491796 -9.286597 22.791083 141.889620 -32.846780 23.746780 -53.803620 -62.984899 -48.802468 25.799936 -31.786980 15.741289 -36.118745 144.401958 -0.700065 -69.758007 4.583816 16.716450 8.597100 -2.906530 9.696690 7.190050 28.712072 69.893924 26.347822 64.171800 -2.231207 -13.559285 -37.597040 1.079199 -2.815397 1.810509 -17.073824 10.669710 -13.029860 -18.899800 -3.014340 
-1.180020 18.122850 -2.632030 -9.228518 -16.576258 -14.085715 -18.357411 19.107911 4.379766 29.338164 -9.041905 -17.146434 -7.313868 7.834314 40.644429 8.295995 11.962087 4.994814 23.175040 1.500050 27.880490 15.245474 -4.197800 2.714660 5.807159 10.191581 10.959328 9.375026 -4.396067 10.115266 -10.980136 -3.095773 3.279560 -1.038050 -9.026890 15.631270 4.613904 -23.760305 -11.655867 20.637347 -13.009513 34.509191 -27.142539 16.342190 11.225560 19.624691 20.044707 -66.443752 -6.525930 19.266801 141.829154 -35.341400 21.795210 -53.009010 -62.317114 -48.061252 26.390168 -28.948067 17.890380 -35.568385 145.973171 -3.270665 -76.624238 4.081066 16.418077 8.580030 -2.919500 9.624510 7.201790 25.914460 69.944993 25.977707 62.492025 0.526341 -13.682098 -39.369936 2.877432 -3.499269 1.916078 -17.145957 10.642010 -13.021970 -18.841670 -2.987690 
-1.160110 18.131010 -2.599880 -7.879602 -18.052866 -14.972144 -18.635997 19.404467 4.083681 28.379666 -9.250008 -14.478627 -6.770376 7.657018 39.255307 8.339956 11.890680 5.107655 23.057330 1.432060 27.728760 15.027230 -3.949208 2.472967 4.716877 9.449858 12.528278 8.763266 -4.308484 8.667566 -10.932137 -3.125184 3.364651 -1.098820 -8.915900 15.576680 5.310229 -24.884238 -12.081355 16.670771 -12.281187 35.534440 -25.661923 16.569264 10.898345 21.722584 21.728088 -64.668522 -3.106391 14.951342 142.461326 -39.127270 20.317100 -51.418830 -63.045208 -46.780380 26.698321 -26.301672 24.078761 -33.986627 148.393226 -5.928546 -86.939792 3.406230 15.928070 8.558810 -2.899350 9.531270 7.247110 23.898123 69.930509 25.918402 60.644290 3.068036 -13.813736 -41.395118 5.577770 -4.522117 1.968916 -17.157279 10.576210 -12.934390 -18.756420 -2.978270 
-1.090650 18.118820 -2.622210 -7.386555 -20.108720 -17.596498 -18.960557 19.463489 3.522064 28.148343 -9.216428 -9.860880 -6.035544 7.681107 37.979944 8.551377 11.996637 5.179364 23.021070 1.389260 27.567900 14.945424 -3.408042 2.066844 4.239272 8.652420 15.502566 8.994075 -4.486331 8.167166 -10.973212 -3.520973 3.354449 -1.165600 -8.874980 15.595150 5.893633 -25.991499 -12.253995 11.262884 -13.104412 40.781376 -25.316923 15.670538 9.404246 25.854336 24.066878 -58.409464 -0.215755 10.668856 139.351986 -45.872750 17.075770 -48.890590 -62.665469 -45.113841 26.411512 -22.291147 30.546672 -34.481912 150.335119 -10.102502 -98.031799 2.498697 15.602046 8.518500 -2.933760 9.444760 7.310730 16.359794 70.699007 24.256397 57.674453 9.803950 -13.882094 -41.836284 7.939277 -5.539537 2.093600 -17.245056 10.609240 -13.000480 -18.702040 -2.876300 
-1.055260 18.105080 -2.667730 -4.777636 -22.328315 -21.683746 -19.354782 19.328258 2.834956 26.167320 -9.169691 -3.135598 -5.776696 7.881455 35.892310 8.979099 12.131613 5.398544 22.974160 1.354690 27.354090 14.851177 -2.976292 1.396087 2.369823 8.299127 18.776842 8.667981 -4.825966 9.564167 -11.016128 -3.991389 3.394597 -1.258990 -8.740620 15.569470 6.654232 -26.646592 -12.769147 2.199438 -11.083904 45.676068 -21.744891 15.024420 10.197004 30.402150 24.409924 -49.317443 -2.756751 15.080466 133.685502 -50.935100 14.230260 -49.098100 -61.191069 -43.356027 26.877366 -21.780928 34.581197 -36.303623 151.193941 -12.840703 -106.036208 2.027901 15.444410 8.443790 -2.977830 9.329290 7.431090 7.057341 70.159650 23.641256 51.368364 19.587555 -14.640985 -41.531947 8.504128 -6.450801 2.454598 -17.554828 10.625110 -12.980930 -18.636140 -2.724250 
-1.014010 18.097140 -2.671470 -2.596831 -23.592325 -23.113658 -19.968447 19.389880 2.366719 23.756428 -9.072042 0.414294 -5.016843 7.398462 33.513594 9.217872 12.053751 5.614039 22.923560 1.307770 27.173440 14.498441 -2.494683 0.782279 0.558559 8.703955 19.482109 8.881579 -4.974858 10.354923 -10.928183 -4.141929 3.468862 -1.317500 -8.569420 15.544520 8.040024 -28.001579 -13.790553 -3.906348 -8.670158 46.321638 -17.928593 15.980436 10.664958 33.754063 23.139020 -41.465831 -7.196520 19.940762 124.578875 -53.570840 14.313530 -44.738390 -60.688553 -40.726809 28.377612 -24.525014 39.044353 -36.344301 153.126305 -15.719335 -117.545830 1.998264 15.510490 8.358110 -2.965680 9.186010 7.541310 0.720999 68.712151 22.323191 46.657940 24.731928 -15.574953 -41.563091 9.776468 -7.344804 2.687036 -17.707680 10.615220 -12.938370 -18.575930 -2.594150 
-1.013710 18.092350 -2.645350 0.405170 -24.692040 -23.633535 -20.946649 19.324197 1.911866 21.353031 -8.839274 3.234737 -5.092844 7.054681 30.461500 9.420215 12.013286 5.791114 22.941670 1.346330 26.974740 13.877940 -1.826338 -0.047610 -1.573550 9.060346 19.562967 8.428963 -5.002903 11.070391 -10.846819 -4.194395 3.525145 -1.290080 -8.463570 15.531330 10.333544 -29.373526 -15.379283 -9.137101 -5.351066 42.772904 -13.177261 16.220633 15.023180 36.643583 20.136052 -33.486988 -17.982942 30.099419 111.607359 -52.924900 14.271960 -40.770440 -59.422052 -38.634670 30.305877 -30.688014 43.698539 -38.705297 153.655847 -20.213634 -130.170388 2.649574 16.279489 8.304160 -2.966550 9.091870 7.690850 -7.667857 67.238806 22.802450 40.220759 31.647737 -18.331180 -43.711931 10.728417 -9.078765 2.866894 -18.044296 10.627070 -12.905150 -18.542360 -2.472560 
-0.983690 18.085500 -2.625910 3.084036 -25.215182 -24.077963 -21.659587 19.272163 1.520525 18.150683 -8.768859 5.224045 -3.814873 6.171867 28.594376 9.659141 11.768566 5.974358 23.037140 1.357350 26.989530 13.420756 -1.399882 -0.653912 -4.431708 9.938867 19.466176 9.497658 -5.202537 11.068846 -10.822285 -4.311120 3.525381 -1.312030 -8.425700 15.601330 12.108180 -29.901698 -16.348554 -12.555421 -2.046470 38.729265 -9.458067 15.209989 20.020499 37.268740 17.007072 -28.987204 -26.792338 34.234100 97.991818 -52.589660 15.709070 -37.024320 -56.393020 -37.087517 32.520533 -35.057329 47.172923 -38.160092 154.300361 -22.925498 -140.936323 3.786449 17.283195 8.226930 -2.965430 9.065800 7.786020 -14.401016 64.251393 22.532547 33.159135 38.576435 -21.840286 -46.854723 10.616081 -10.983006 3.024178 -18.183000 10.720770 -12.978930 -18.605190 -2.348320 
-0.925370 18.064120 -2.621260 4.844537 -26.497867 -25.152519 -22.253519 19.295528 1.276977 15.866176 -8.752534 7.778760 -2.871991 5.534403 26.493911 9.971103 11.726652 6.134723 23.208870 1.339660 27.137410 13.067357 -0.829618 -1.144168 -6.605875 10.745942 19.844684 10.550455 -5.334123 10.911678 -10.881996 -4.462841 3.484899 -1.341330 -8.434780 15.746030 13.648921 -30.878202 -17.254438 -15.086765 0.315310 37.986564 -9.250691 14.949503 22.959079 37.485614 14.303194 -26.499700 -34.514579 35.325137 84.145151 -52.078080 17.811800 -33.501140 -52.730670 -35.880978 33.956503 -38.022023 51.109618 -38.447716 154.950837 -23.123661 -148.404800 4.814569 18.095055 8.189980 -2.967900 9.091500 7.893910 -21.219438 61.750370 21.162236 25.253645 43.526003 -27.779320 -50.167232 13.065487 -13.813827 3.130523 -18.133733 10.854820 -13.119530 -18.752910 -2.242580 
-0.861830 18.061140 -2.615400 5.583688 -28.269461 -25.168624 -22.743785 19.389750 1.105562 14.563689 -8.669174 8.311531 -2.127393 5.239244 26.045121 10.269311 11.682118 6.256283 23.515460 1.324570 27.458290 12.741282 -0.471894 -1.527340 -7.941426 11.713593 18.673141 11.419219 -5.328065 11.841830 -10.995021 -4.425011 3.460864 -1.366860 -8.545440 15.971610 15.122473 -31.832895 -18.192277 -14.834912 1.710787 38.341142 -9.256001 16.291499 23.177821 37.946952 13.112815 -25.372101 -40.141837 36.709572 76.780021 -48.978970 17.880420 -29.928610 -51.152856 -34.619100 35.435264 -37.575240 53.508671 -38.316240 153.837569 -27.810655 -152.311005 5.870250 19.080091 8.228500 -3.019640 9.226030 8.028290 -24.239802 60.325205 19.684432 23.790200 44.050958 -33.094902 -54.317647 20.371756 -17.471329 3.277224 -18.169560 11.064750 -13.336860 -19.028530 -2.142460 
